<svg width="195" height="50" viewBox="0 0 195 50" fill="none" xmlns="http://www.w3.org/2000/svg">
<g clip-path="url(#clip0_1703_326)">
<g clip-path="url(#clip1_1703_326)">
<path d="M71.8915 16.3916V10.9951H77.084V16.3916H71.8915Z" fill="black"/>
<path d="M103.265 16.3917V10.9951H108.458V16.3917H103.265Z" fill="black"/>
<path d="M154.46 16.3917V10.9951H159.653V16.3917H154.46Z" fill="black"/>
<path fill-rule="evenodd" clip-rule="evenodd" d="M0 0H38.1284V49.9784H0V0ZM10.5462 39.1497H17.0361V21.6573H10.5462V39.1497ZM27.5823 39.1497H21.0923V10.8286H27.5823V39.1497Z" fill="black"/>
<path d="M57.5237 39.4621C52.0592 39.4621 48.6746 34.3119 48.6746 29.0242C48.6746 23.8266 51.9964 18.5863 57.5237 18.5863C59.6857 18.5863 61.9209 19.5147 63.4109 21.1317V10.9951H68.6034V39.0826H63.7035L63.5925 36.7399C62.138 38.5737 59.7819 39.4621 57.5237 39.4621ZM58.6938 34.9833C61.8235 34.9833 63.5938 32.0143 63.5938 29.0242C63.5938 26.0863 61.8621 23.1031 58.6938 23.1031C55.5602 23.1031 53.867 26.0405 53.867 29.0242C53.867 31.9542 55.4888 34.9833 58.6938 34.9833Z" fill="black"/>
<path d="M71.8915 39.0827V19.0039H77.084V39.0827H71.8915Z" fill="black"/>
<path d="M89.605 47.8126C86.8387 47.8126 83.6781 47.0722 81.4504 45.3075L83.2789 41.4359C84.9485 42.6493 87.061 43.2578 89.0923 43.2578C92.4841 43.2578 94.6874 41.2449 94.6874 37.7922V36.4185C93.3124 38.1929 90.9614 39.0827 88.8003 39.0827C83.3844 39.0827 79.5122 34.4754 79.5122 28.9864C79.5122 23.6472 83.0704 18.5864 88.6542 18.5864C90.9565 18.5864 93.2856 19.5711 94.8327 21.3423L94.9065 19.0039H99.8802V37.5645C99.8802 43.6327 95.6293 47.8126 89.605 47.8126ZM89.751 34.7557C92.88 34.7557 94.8335 32.0952 94.8335 28.9864C94.8335 25.9451 92.9368 23.2171 89.751 23.2171C86.6545 23.2171 84.7043 25.9333 84.7043 28.9864C84.7043 32.019 86.5612 34.7557 89.751 34.7557Z" fill="black"/>
<path d="M103.265 39.0827V19.0039H108.458V39.0827H103.265Z" fill="black"/>
<path d="M130.245 39.4622C124.881 39.4622 121.688 34.0587 121.688 28.9864C121.688 23.834 124.966 18.5864 130.464 18.5864C132.809 18.5864 135.069 19.6702 136.462 21.6362V19.0039H141.617V39.0827H136.389V36.4594C134.92 38.3555 132.598 39.4622 130.245 39.4622ZM131.671 34.7937C134.831 34.7937 136.535 31.9306 136.535 28.9864C136.535 26.0349 134.722 23.2171 131.671 23.2171C128.596 23.2171 126.844 26.1191 126.844 28.9864C126.844 31.9471 128.596 34.7937 131.671 34.7937Z" fill="black"/>
<path d="M145.397 39.0826V10.9951H150.589V39.0826H145.397Z" fill="black"/>
<path d="M154.46 39.0827V19.0039H159.653V39.0827H154.46Z" fill="black"/>
<path d="M170.245 39.4622C167.186 39.4622 164.033 38.4951 162.054 35.9703L165.271 33.0856C166.654 34.6133 168.544 35.4389 170.574 35.4389C171.699 35.4389 173.024 34.9007 173.024 33.5411C173.024 31.7654 170.515 31.468 169.258 31.1119C166.091 30.2739 162.675 28.5494 162.675 24.6594C162.675 20.7102 166.679 18.5864 170.135 18.5864C172.944 18.5864 175.855 19.6271 177.85 21.6988L175.072 24.8871C173.829 23.6691 172.074 22.5718 170.318 22.5718C169.145 22.5718 167.721 22.9734 167.721 24.3937C167.721 25.5766 168.752 26.0082 169.659 26.3674C173.028 27.6386 177.96 28.3307 177.96 33.0477C177.96 37.2229 173.924 39.4622 170.245 39.4622Z" fill="black"/>
<path d="M188.938 39.0829V33.6863H194.13V39.0829H188.938Z" fill="black"/>
<path d="M112.12 39.0826V10.9951H117.312V19.0038H121.261V24.2121H117.312V39.0826H112.12Z" fill="black"/>
<path d="M180.546 39.0826V10.9951H185.739V19.0038H189.688V24.6001H185.739V39.0826H180.546Z" fill="black"/>
</g>
</g>
<defs>
<clipPath id="clip0_1703_326">
<rect width="194.13" height="50" fill="white"/>
</clipPath>
<clipPath id="clip1_1703_326">
<rect width="194.13" height="49.9784" fill="white"/>
</clipPath>
</defs>
</svg>
